<svg width="141.571395px" height="35px" xmlns="http://www.w3.org/2000/svg" viewBox="-59.920001220703114 -1.6199951171875 619.8400024414062 153.239990234375" style="background: rgba(0, 0, 0, 0) none repeat scroll 0% 0%;" preserveAspectRatio="xMidYMid"><defs><linearGradient id="editing-gradient-gradient" x1="0" x2="1" y1="0.5" y2="0.5" gradientUnits="objectBoundingBox"><stop offset="0" stop-color="#ffc173"></stop><stop offset="1" stop-color="#ffac42"></stop></linearGradient></defs><g><g transform="translate(29.705078125, 99.41015434265137)"><path d="M28.46-34.22L28.46-34.22Q28.90-33.36 28.90-31.87L28.90-31.87L28.90-31.87Q28.90-30.10 27.65-29.11L27.65-29.11L27.65-29.11Q26.40-28.13 24.14-28.13L24.14-28.13L24.14-28.13Q22.42-28.13 18.77-28.61L18.77-28.61L18.10-24.29L18.10-24.29Q15.22-6.67 15.22-4.03L15.22-4.03L15.22-4.03Q15.22-1.39 16.32 0L16.32 0L16.32 0Q14.50 1.25 12.62 1.25L12.62 1.25L12.62 1.25Q10.90 1.25 10.08 0.38L10.08 0.38L10.08 0.38Q9.26-0.48 9.26-2.45L9.26-2.45L9.26-2.45Q9.26-4.94 10.13-11.11L10.13-11.11L10.13-11.11Q10.99-17.28 12.96-29.33L12.96-29.33L12.96-29.33Q12.48-29.38 11.57-29.38L11.57-29.38L3.84-28.22L3.84-28.22Q3.36-29.14 3.36-30.58L3.36-30.58L3.36-30.58Q3.36-32.69 4.56-33.50L4.56-33.50L4.56-33.50Q5.76-34.32 8.16-34.32L8.16-34.32L8.16-34.32Q9.98-34.32 11.98-34.03L11.98-34.03L11.98-34.03Q13.97-33.74 14.35-33.70L14.35-33.70L14.35-33.70Q18.48-33.02 20.74-33.02L20.74-33.02L28.46-34.22ZM39.02-32.88L39.02-32.88Q37.49-32.88 36.58-33.62L36.58-33.62L36.58-33.62Q35.66-34.37 35.66-35.62L35.66-35.62L35.66-35.62Q35.66-37.06 36.86-38.14L36.86-38.14L36.86-38.14Q38.06-39.22 39.94-39.22L39.94-39.22L39.94-39.22Q41.52-39.22 42.41-38.47L42.41-38.47L42.41-38.47Q43.30-37.73 43.30-36.53L43.30-36.53L43.30-36.53Q43.30-34.99 42.10-33.94L42.10-33.94L42.10-33.94Q40.90-32.88 39.02-32.88L39.02-32.88ZM34.75 1.20L34.75 1.20Q33.12 1.20 32.30 0.38L32.30 0.38L32.30 0.38Q31.49-0.43 31.49-2.21L31.49-2.21L31.49-2.21Q31.49-4.18 32.42-9.22L32.42-9.22L32.42-9.22Q33.36-14.26 35.62-24.38L35.62-24.38L33.50-26.78L33.50-26.78Q34.66-27.70 36.17-28.25L36.17-28.25L36.17-28.25Q37.68-28.80 38.93-28.80L38.93-28.80L38.93-28.80Q40.37-28.80 40.97-28.20L40.97-28.20L40.97-28.20Q41.57-27.60 41.57-26.16L41.57-26.16L41.57-26.16Q41.57-25.78 40.66-22.03L40.66-22.03L40.66-22.03Q39.17-15.94 38.18-10.99L38.18-10.99L38.18-10.99Q37.20-6.05 37.20-2.64L37.20-2.64L37.20-2.64Q37.20-0.82 38.06-0.10L38.06-0.10L38.06-0.10Q36.48 1.20 34.75 1.20L34.75 1.20ZM53.42 1.20L53.42 1.20Q51.74 1.20 50.95 0.34L50.95 0.34L50.95 0.34Q50.16-0.53 50.16-2.21L50.16-2.21L50.16-2.21Q50.16-4.61 51.53-11.47L51.53-11.47L51.53-11.47Q52.90-18.34 54.34-24L54.34-24L52.18-26.40L52.18-26.40Q53.33-27.41 54.89-28.03L54.89-28.03L54.89-28.03Q56.45-28.66 57.70-28.66L57.70-28.66L57.70-28.66Q59.14-28.66 59.71-28.08L59.71-28.08L59.71-28.08Q60.29-27.50 60.29-26.02L60.29-26.02L60.29-26.02Q60.29-24.77 59.88-23.18L59.88-23.18L59.88-23.18Q59.47-21.60 58.80-20.26L58.80-20.26L59.28-20.02L59.28-20.02Q61.73-24.67 64.63-26.74L64.63-26.74L64.63-26.74Q67.54-28.80 71.09-28.80L71.09-28.80L71.09-28.80Q76.85-28.80 76.85-22.75L76.85-22.75L76.85-22.75Q76.85-21.55 76.51-20.26L76.51-20.26L76.99-20.02L76.99-20.02Q79.54-24.67 82.51-26.74L82.51-26.74L82.51-26.74Q85.49-28.80 89.09-28.80L89.09-28.80L89.09-28.80Q92.21-28.80 93.74-27.24L93.74-27.24L93.74-27.24Q95.28-25.68 95.28-22.42L95.28-22.42L95.28-22.42Q95.28-20.50 94.87-18.43L94.87-18.43L94.87-18.43Q94.46-16.37 93.70-13.25L93.70-13.25L93.70-13.25Q92.78-9.60 92.35-7.27L92.35-7.27L92.35-7.27Q91.92-4.94 91.92-2.64L91.92-2.64L91.92-2.64Q91.92-0.86 92.50-0.14L92.50-0.14L92.50-0.14Q91.10 1.20 89.52 1.20L89.52 1.20L89.52 1.20Q86.21 1.20 86.21-2.30L86.21-2.30L86.21-2.30Q86.21-4.13 86.62-6.46L86.62-6.46L86.62-6.46Q87.02-8.78 87.84-12.29L87.84-12.29L87.84-12.29Q88.61-15.70 88.94-17.57L88.94-17.57L88.94-17.57Q89.28-19.44 89.28-20.83L89.28-20.83L89.28-20.83Q89.28-22.75 88.58-23.74L88.58-23.74L88.58-23.74Q87.89-24.72 86.30-24.72L86.30-24.72L86.30-24.72Q83.57-24.72 80.66-21.84L80.66-21.84L80.66-21.84Q77.76-18.96 75.82-13.90L75.82-13.90L75.82-13.90Q73.87-8.83 73.87-2.64L73.87-2.64L73.87-2.64Q73.87-0.82 74.50-0.14L74.50-0.14L74.50-0.14Q73.10 1.20 71.47 1.20L71.47 1.20L71.47 1.20Q68.21 1.20 68.21-2.30L68.21-2.30L68.21-2.30Q68.21-4.13 68.62-6.46L68.62-6.46L68.62-6.46Q69.02-8.78 69.84-12.29L69.84-12.29L69.84-12.29Q70.61-15.70 70.94-17.57L70.94-17.57L70.94-17.57Q71.28-19.44 71.28-20.83L71.28-20.83L71.28-20.83Q71.28-24.72 68.30-24.72L68.30-24.72L68.30-24.72Q65.57-24.72 62.66-21.84L62.66-21.84L62.66-21.84Q59.76-18.96 57.82-13.90L57.82-13.90L57.82-13.90Q55.87-8.83 55.87-2.64L55.87-2.64L55.87-2.64Q55.87-0.86 56.45-0.14L56.45-0.14L56.45-0.14Q55.06 1.20 53.42 1.20L53.42 1.20ZM127.97-21.94L127.97-21.94Q127.97-16.99 122.90-14.18L122.90-14.18L122.90-14.18Q117.84-11.38 108.48-11.14L108.48-11.14L108.48-10.22L108.48-10.22Q108.48-6.38 109.92-4.20L109.92-4.20L109.92-4.20Q111.36-2.02 113.86-2.02L113.86-2.02L113.86-2.02Q116.98-2.02 118.94-3.98L118.94-3.98L118.94-3.98Q120.91-5.95 121.10-9.22L121.10-9.22L121.10-9.22Q124.99-9.22 124.99-6.34L124.99-6.34L124.99-6.34Q124.99-4.42 123.46-2.66L123.46-2.66L123.46-2.66Q121.92-0.91 119.26 0.14L119.26 0.14L119.26 0.14Q116.59 1.20 113.38 1.20L113.38 1.20L113.38 1.20Q108.29 1.20 105.41-1.92L105.41-1.92L105.41-1.92Q102.53-5.04 102.53-10.51L102.53-10.51L102.53-10.51Q102.53-15.70 104.78-19.87L104.78-19.87L104.78-19.87Q107.04-24.05 111.02-26.42L111.02-26.42L111.02-26.42Q115.01-28.80 119.90-28.80L119.90-28.80L119.90-28.80Q123.70-28.80 125.83-26.98L125.83-26.98L125.83-26.98Q127.97-25.15 127.97-21.94L127.97-21.94ZM119.09-25.78L119.09-25.78Q116.64-25.78 114.50-24.22L114.50-24.22L114.50-24.22Q112.37-22.66 110.86-19.94L110.86-19.94L110.86-19.94Q109.34-17.23 108.77-13.82L108.77-13.82L108.77-13.82Q115.39-13.97 119.06-16.13L119.06-16.13L119.06-16.13Q122.74-18.29 122.74-22.08L122.74-22.08L122.74-22.08Q122.74-23.76 121.73-24.77L121.73-24.77L121.73-24.77Q120.72-25.78 119.09-25.78L119.09-25.78ZM173.76-28.80L173.76-28.80Q176.21-28.80 176.21-25.92L176.21-25.92L176.21-25.92Q176.21-18.14 172.75-9.84L172.75-9.84L172.75-9.84Q169.30-1.54 163.03 4.03L163.03 4.03L163.03 4.03Q156.77 9.60 148.75 9.60L148.75 9.60L148.75 9.60Q145.73 9.60 144.24 8.54L144.24 8.54L144.24 8.54Q142.75 7.49 142.75 5.66L142.75 5.66L142.75 5.66Q142.75 4.99 143.04 4.25L143.04 4.25L143.04 4.25Q143.33 3.50 143.71 2.93L143.71 2.93L143.71 2.93Q144.72 4.08 146.06 4.80L146.06 4.80L146.06 4.80Q147.41 5.52 149.86 5.52L149.86 5.52L149.86 5.52Q152.02 5.52 154.78 4.44L154.78 4.44L154.78 4.44Q157.54 3.36 160.18 1.15L160.18 1.15L160.18 1.15Q156.67 0.86 154.97-1.34L154.97-1.34L154.97-1.34Q153.26-3.55 152.83-6.55L152.83-6.55L152.83-6.55Q152.40-9.55 152.26-14.50L152.26-14.50L152.26-14.50Q152.16-18.14 151.97-20.30L151.97-20.30L151.97-20.30Q151.78-22.46 151.15-24.43L151.15-24.43L151.15-24.43Q150.53-26.40 149.18-27.60L149.18-27.60L149.18-27.60Q150.72-28.80 152.50-28.80L152.50-28.80L152.50-28.80Q155.04-28.80 156.22-27L156.22-27L156.22-27Q157.39-25.20 157.66-22.58L157.66-22.58L157.66-22.58Q157.92-19.97 157.92-15.46L157.92-15.46L157.92-15.46Q157.97-11.09 158.21-8.50L158.21-8.50L158.21-8.50Q158.45-5.90 159.46-3.84L159.46-3.84L159.46-3.84Q160.46-1.78 162.62-1.20L162.62-1.20L162.62-1.20Q166.22-5.04 168.36-10.97L168.36-10.97L168.36-10.97Q170.50-16.90 170.50-24.96L170.50-24.96L170.50-24.96Q170.50-26.93 170.40-27.60L170.40-27.60L170.40-27.60Q171.50-28.27 172.22-28.54L172.22-28.54L172.22-28.54Q172.94-28.80 173.76-28.80L173.76-28.80ZM192.91 1.20L192.91 1.20Q189.46 1.20 186.84-0.36L186.84-0.36L186.84-0.36Q184.22-1.92 182.81-4.78L182.81-4.78L182.81-4.78Q181.39-7.63 181.39-11.42L181.39-11.42L181.39-11.42Q181.39-16.51 183.53-20.45L183.53-20.45L183.53-20.45Q185.66-24.38 189.50-26.59L189.50-26.59L189.50-26.59Q193.34-28.80 198.19-28.80L198.19-28.80L198.19-28.80Q200.21-28.80 201.89-28.42L201.89-28.42L201.89-28.42Q202.42-27.65 202.51-26.16L202.51-26.16L202.51-26.16Q197.71-26.16 194.30-24.24L194.30-24.24L194.30-24.24Q190.90-22.32 189.12-18.89L189.12-18.89L189.12-18.89Q187.34-15.46 187.34-11.09L187.34-11.09L187.34-11.09Q187.34-6.82 188.93-4.42L188.93-4.42L188.93-4.42Q190.51-2.02 193.44-2.02L193.44-2.02L193.44-2.02Q196.27-2.02 198.55-3.60L198.55-3.60L198.55-3.60Q200.83-5.18 202.30-8.11L202.30-8.11L202.30-8.11Q203.76-11.04 204.14-14.93L204.14-14.93L204.14-14.93Q202.18-16.18 201.29-17.66L201.29-17.66L201.29-17.66Q200.40-19.15 200.40-21.17L200.40-21.17L200.40-21.17Q200.40-22.99 201.50-24.22L201.50-24.22L201.50-24.22Q202.61-25.44 204.24-25.44L204.24-25.44L204.24-25.44Q206.45-25.44 207.70-23.47L207.70-23.47L207.70-23.47Q208.94-21.50 208.94-18L208.94-18L208.94-18Q208.94-12.72 206.81-8.33L206.81-8.33L206.81-8.33Q204.67-3.94 201.00-1.37L201.00-1.37L201.00-1.37Q197.33 1.20 192.91 1.20L192.91 1.20ZM239.95-2.64L239.95-2.64Q239.95-0.82 240.77-0.10L240.77-0.10L240.77-0.10Q239.33 1.20 237.46 1.20L237.46 1.20L237.46 1.20Q235.82 1.20 235.03 0.10L235.03 0.10L235.03 0.10Q234.24-1.01 234.24-3.36L234.24-3.36L234.24-3.50L233.76-3.74L233.76-3.74Q232.22-1.58 229.63-0.19L229.63-0.19L229.63-0.19Q227.04 1.20 224.59 1.20L224.59 1.20L224.59 1.20Q220.66 1.20 218.78-0.70L218.78-0.70L218.78-0.70Q216.91-2.59 216.91-6.58L216.91-6.58L216.91-6.58Q216.91-8.54 217.22-10.61L217.22-10.61L217.22-10.61Q217.54-12.67 218.21-16.08L218.21-16.08L218.21-16.08Q218.74-18.72 219.02-20.54L219.02-20.54L219.02-20.54Q219.31-22.37 219.31-23.81L219.31-23.81L219.31-23.81Q219.31-25.92 218.78-27.50L218.78-27.50L218.78-27.50Q219.74-28.08 220.80-28.44L220.80-28.44L220.80-28.44Q221.86-28.80 222.53-28.80L222.53-28.80L222.53-28.80Q223.92-28.80 224.57-28.06L224.57-28.06L224.57-28.06Q225.22-27.31 225.22-25.68L225.22-25.68L225.22-25.68Q225.22-24.48 224.83-22.32L224.83-22.32L224.83-22.32Q224.45-20.16 223.68-16.56L223.68-16.56L223.68-16.56Q223.15-13.92 222.70-11.45L222.70-11.45L222.70-11.45Q222.24-8.98 222.24-7.87L222.24-7.87L222.24-7.87Q222.24-5.14 223.39-3.74L223.39-3.74L223.39-3.74Q224.54-2.35 226.80-2.35L226.80-2.35L226.80-2.35Q229.15-2.35 231.24-3.84L231.24-3.84L231.24-3.84Q233.33-5.33 234.77-8.02L234.77-8.02L234.77-8.02Q235.87-14.06 238.18-23.90L238.18-23.90L236.21-26.78L236.21-26.78Q237.17-27.65 238.75-28.22L238.75-28.22L238.75-28.22Q240.34-28.80 241.63-28.80L241.63-28.80L241.63-28.80Q243.07-28.80 243.67-28.20L243.67-28.20L243.67-28.20Q244.27-27.60 244.27-26.16L244.27-26.16L244.27-26.16Q244.27-25.78 243.36-22.03L243.36-22.03L243.36-22.03Q241.82-15.46 240.89-10.75L240.89-10.75L240.89-10.75Q239.95-6.05 239.95-2.64L239.95-2.64ZM256.13 1.20L256.13 1.20Q252.86 1.20 252.86-2.78L252.86-2.78L252.86-2.78Q252.86-4.75 254.18-11.45L254.18-11.45L254.18-11.45Q255.50-18.14 257.04-24L257.04-24L254.93-26.40L254.93-26.40Q257.66-28.66 259.68-28.66L259.68-28.66L259.68-28.66Q261.02-28.66 261.65-27.91L261.65-27.91L261.65-27.91Q262.27-27.17 262.27-26.02L262.27-26.02L262.27-26.02Q262.27-24.53 261.77-22.78L261.77-22.78L261.77-22.78Q261.26-21.02 260.30-18.67L260.30-18.67L260.78-18.43L260.78-18.43Q265.20-28.85 270.24-28.85L270.24-28.85L270.24-28.85Q273.41-28.85 273.41-26.02L273.41-26.02L273.41-26.02Q273.41-24.43 272.16-23.47L272.16-23.47L272.16-23.47Q270.91-22.51 268.90-22.51L268.90-22.51L268.90-22.51Q266.35-22.51 263.95-19.63L263.95-19.63L263.95-19.63Q261.55-16.75 260.06-12.14L260.06-12.14L260.06-12.14Q258.58-7.54 258.58-2.64L258.58-2.64L258.58-2.64Q258.58-0.86 259.15-0.14L259.15-0.14L259.15-0.14Q257.71 1.20 256.13 1.20L256.13 1.20ZM315.55-34.22L315.55-34.22Q315.98-33.36 315.98-31.87L315.98-31.87L315.98-31.87Q315.98-30.10 314.74-29.11L314.74-29.11L314.74-29.11Q313.49-28.13 311.23-28.13L311.23-28.13L311.23-28.13Q309.50-28.13 305.86-28.61L305.86-28.61L305.18-24.29L305.18-24.29Q302.30-6.67 302.30-4.03L302.30-4.03L302.30-4.03Q302.30-1.39 303.41 0L303.41 0L303.41 0Q301.58 1.25 299.71 1.25L299.71 1.25L299.71 1.25Q297.98 1.25 297.17 0.38L297.17 0.38L297.17 0.38Q296.35-0.48 296.35-2.45L296.35-2.45L296.35-2.45Q296.35-4.94 297.22-11.11L297.22-11.11L297.22-11.11Q298.08-17.28 300.05-29.33L300.05-29.33L300.05-29.33Q299.57-29.38 298.66-29.38L298.66-29.38L290.93-28.22L290.93-28.22Q290.45-29.14 290.45-30.58L290.45-30.58L290.45-30.58Q290.45-32.69 291.65-33.50L291.65-33.50L291.65-33.50Q292.85-34.32 295.25-34.32L295.25-34.32L295.25-34.32Q297.07-34.32 299.06-34.03L299.06-34.03L299.06-34.03Q301.06-33.74 301.44-33.70L301.44-33.70L301.44-33.70Q305.57-33.02 307.82-33.02L307.82-33.02L315.55-34.22ZM321.84 1.20L321.84 1.20Q318.58 1.20 318.58-2.78L318.58-2.78L318.58-2.78Q318.58-4.75 319.90-11.45L319.90-11.45L319.90-11.45Q321.22-18.14 322.75-24L322.75-24L320.64-26.40L320.64-26.40Q323.38-28.66 325.39-28.66L325.39-28.66L325.39-28.66Q326.74-28.66 327.36-27.91L327.36-27.91L327.36-27.91Q327.98-27.17 327.98-26.02L327.98-26.02L327.98-26.02Q327.98-24.53 327.48-22.78L327.48-22.78L327.48-22.78Q326.98-21.02 326.02-18.67L326.02-18.67L326.50-18.43L326.50-18.43Q330.91-28.85 335.95-28.85L335.95-28.85L335.95-28.85Q339.12-28.85 339.12-26.02L339.12-26.02L339.12-26.02Q339.12-24.43 337.87-23.47L337.87-23.47L337.87-23.47Q336.62-22.51 334.61-22.51L334.61-22.51L334.61-22.51Q332.06-22.51 329.66-19.63L329.66-19.63L329.66-19.63Q327.26-16.75 325.78-12.14L325.78-12.14L325.78-12.14Q324.29-7.54 324.29-2.64L324.29-2.64L324.29-2.64Q324.29-0.86 324.86-0.14L324.86-0.14L324.86-0.14Q323.42 1.20 321.84 1.20L321.84 1.20ZM364.56-2.64L364.56-2.64Q364.56-0.96 365.42-0.14L365.42-0.14L365.42-0.14Q363.94 1.20 362.21 1.20L362.21 1.20L362.21 1.20Q360.58 1.20 359.71 0.19L359.71 0.19L359.71 0.19Q358.85-0.82 358.85-2.74L358.85-2.74L358.85-2.74Q358.85-3.79 359.18-5.62L359.18-5.62L358.70-5.86L358.70-5.86Q356.98-2.50 354.36-0.65L354.36-0.65L354.36-0.65Q351.74 1.20 348.67 1.20L348.67 1.20L348.67 1.20Q346.08 1.20 344.09-0.19L344.09-0.19L344.09-0.19Q342.10-1.58 341.02-4.15L341.02-4.15L341.02-4.15Q339.94-6.72 339.94-10.08L339.94-10.08L339.94-10.08Q339.94-15.26 342.38-19.56L342.38-19.56L342.38-19.56Q344.83-23.86 349.06-26.33L349.06-26.33L349.06-26.33Q353.28-28.80 358.37-28.80L358.37-28.80L358.37-28.80Q360.58-28.80 362.88-28.42L362.88-28.42L362.88-28.42Q363.22-27.84 363.41-26.88L363.41-26.88L363.41-26.88Q364.42-27.60 365.71-27.60L365.71-27.60L365.71-27.60Q366.91-27.60 367.61-27.02L367.61-27.02L367.61-27.02Q368.30-26.45 368.30-25.44L368.30-25.44L368.30-25.44Q368.30-24.34 367.99-22.80L367.99-22.80L367.99-22.80Q367.68-21.26 366.96-18.29L366.96-18.29L366.96-18.29Q365.81-13.44 365.18-9.89L365.18-9.89L365.18-9.89Q364.56-6.34 364.56-2.64L364.56-2.64ZM350.98-3.31L350.98-3.31Q355.44-3.31 358.32-9L358.32-9L358.32-9Q361.20-14.69 362.64-26.16L362.64-26.16L362.64-26.16Q357.46-26.02 353.64-23.88L353.64-23.88L353.64-23.88Q349.82-21.74 347.83-18.19L347.83-18.19L347.83-18.19Q345.84-14.64 345.84-10.22L345.84-10.22L345.84-10.22Q345.84-6.96 347.18-5.14L347.18-5.14L347.18-5.14Q348.53-3.31 350.98-3.31L350.98-3.31ZM400.46-3.07L400.46-3.07Q400.46-2.21 400.73-1.39L400.73-1.39L400.73-1.39Q400.99-0.58 401.47-0.14L401.47-0.14L401.47-0.14Q399.89 1.20 397.87 1.20L397.87 1.20L397.87 1.20Q394.85 1.20 394.85-2.59L394.85-2.59L394.85-2.59Q394.85-3.36 395.09-5.62L395.09-5.62L394.56-5.86L394.56-5.86Q392.83-2.50 390.22-0.65L390.22-0.65L390.22-0.65Q387.60 1.20 384.53 1.20L384.53 1.20L384.53 1.20Q381.94 1.20 379.94-0.19L379.94-0.19L379.94-0.19Q377.95-1.58 376.87-4.15L376.87-4.15L376.87-4.15Q375.79-6.72 375.79-10.08L375.79-10.08L375.79-10.08Q375.79-14.93 378.24-18.94L378.24-18.94L378.24-18.94Q380.69-22.94 384.91-25.27L384.91-25.27L384.91-25.27Q389.14-27.60 394.22-27.60L394.22-27.60L394.22-27.60Q396.43-27.60 398.45-27.26L398.45-27.26L399.41-32.74L397.30-35.14L397.30-35.14Q398.45-36.10 399.98-36.65L399.98-36.65L399.98-36.65Q401.52-37.20 402.82-37.20L402.82-37.20L402.82-37.20Q404.16-37.20 404.74-36.60L404.74-36.60L404.74-36.60Q405.31-36 405.31-34.56L405.31-34.56L405.31-34.56Q405.31-33.60 404.90-31.58L404.90-31.58L404.90-31.58Q404.50-29.57 403.97-27.17L403.97-27.17L403.97-27.17Q402.38-20.16 401.42-14.52L401.42-14.52L401.42-14.52Q400.46-8.88 400.46-3.07L400.46-3.07ZM395.95-11.71L395.95-11.71Q396.86-18.14 398.06-24.91L398.06-24.91L398.06-24.91Q393.07-24.72 389.38-22.80L389.38-22.80L389.38-22.80Q385.68-20.88 383.69-17.62L383.69-17.62L383.69-17.62Q381.70-14.35 381.70-10.22L381.70-10.22L381.70-10.22Q381.70-6.96 383.04-5.14L383.04-5.14L383.04-5.14Q384.38-3.31 386.83-3.31L386.83-3.31L386.83-3.31Q389.47-3.31 392.02-5.66L392.02-5.66L392.02-5.66Q394.56-8.02 395.95-12L395.95-12L395.95-11.71ZM437.23-21.94L437.23-21.94Q437.23-16.99 432.17-14.18L432.17-14.18L432.17-14.18Q427.10-11.38 417.74-11.14L417.74-11.14L417.74-10.22L417.74-10.22Q417.74-6.38 419.18-4.20L419.18-4.20L419.18-4.20Q420.62-2.02 423.12-2.02L423.12-2.02L423.12-2.02Q426.24-2.02 428.21-3.98L428.21-3.98L428.21-3.98Q430.18-5.95 430.37-9.22L430.37-9.22L430.37-9.22Q434.26-9.22 434.26-6.34L434.26-6.34L434.26-6.34Q434.26-4.42 432.72-2.66L432.72-2.66L432.72-2.66Q431.18-0.91 428.52 0.14L428.52 0.14L428.52 0.14Q425.86 1.20 422.64 1.20L422.64 1.20L422.64 1.20Q417.55 1.20 414.67-1.92L414.67-1.92L414.67-1.92Q411.79-5.04 411.79-10.51L411.79-10.51L411.79-10.51Q411.79-15.70 414.05-19.87L414.05-19.87L414.05-19.87Q416.30-24.05 420.29-26.42L420.29-26.42L420.29-26.42Q424.27-28.80 429.17-28.80L429.17-28.80L429.17-28.80Q432.96-28.80 435.10-26.98L435.10-26.98L435.10-26.98Q437.23-25.15 437.23-21.94L437.23-21.94ZM428.35-25.78L428.35-25.78Q425.90-25.78 423.77-24.22L423.77-24.22L423.77-24.22Q421.63-22.66 420.12-19.94L420.12-19.94L420.12-19.94Q418.61-17.23 418.03-13.82L418.03-13.82L418.03-13.82Q424.66-13.97 428.33-16.13L428.33-16.13L428.33-16.13Q432.00-18.29 432.00-22.08L432.00-22.08L432.00-22.08Q432.00-23.76 430.99-24.77L430.99-24.77L430.99-24.77Q429.98-25.78 428.35-25.78L428.35-25.78Z" fill="url(#editing-gradient-gradient)"></path></g></g><style>text {
  font-size: 64px;
  font-family: Arial Black;
  dominant-baseline: central;
  text-anchor: middle;
}</style></svg>